Coordinates
version=1
nRows=20
nColumns=32
inDegrees=yes

Units are S.I. units (second, meters, Newtons, ...)
If the header above contains a line with 'inDegrees', this indicates whether rotational values are in degrees (yes) or radians (no).

endheader
time	pelvis_tilt	pelvis_list	pelvis_rotation	pelvis_tx	pelvis_ty	pelvis_tz	hip_flexion_r	hip_adduction_r	hip_rotation_r	knee_angle_r	knee_adduction_r	med_cond_adduction_r	lat_cond_adduction_r	patella_r_constrained_knee_angle	ankle_angle_r	subtalar_angle_r	mtp_angle_r	hip_flexion_l	hip_adduction_l	hip_rotation_l	knee_angle_l	knee_adduction_l	med_cond_adduction_l	lat_cond_adduction_l	patella_l_constrained_knee_angle	ankle_angle_l	subtalar_angle_l	mtp_angle_l	lumbar_extension	lumbar_bending	lumbar_rotation
      0.71500000	      2.72208266	     -5.78300615	     -8.47336224	      0.25220533	      0.90789316	      0.26385511	    -23.89395880	      0.20570278	     -4.62920819	     -8.56536212	      2.85535579	      0.00000000	      0.00000000	     -0.14949377	      1.36445437	      5.79686153	      0.00000000	     23.69415486	    -14.26230042	    -24.34189552	     -8.91388938	      1.70677537	     -0.00000000	     -0.00000000	     -0.15557672	     -1.99837286	     12.91775452	     -0.00000000	     -5.72668779	      5.12062206	     -0.51836933
      0.72000000	      2.88143814	     -5.08595353	     -8.52131660	      0.26027731	      0.90778934	      0.26272004	    -24.11781243	     -0.80091644	     -4.68002821	     -9.11533714	      2.95832493	      0.00000000	      0.00000000	     -0.15909265	      0.54372956	      5.60293437	      0.00000000	     23.35364920	    -13.21219141	    -24.32765139	     -9.07206865	      1.27142051	     -0.00000000	     -0.00000000	     -0.15833747	     -2.71436687	     12.05266146	     -0.00000000	     -5.67469468	      4.04481789	     -0.77125744
      0.72500000	      3.03650774	     -4.79729741	     -8.84799235	      0.26800880	      0.90787541	      0.26256657	    -24.19628802	     -1.30046121	     -4.34704966	     -9.93027976	      2.73842149	      0.00000000	      0.00000000	     -0.17331608	     -0.21583333	      5.45538125	      0.00000000	     23.03897657	    -13.01835120	    -24.52478108	     -9.71798298	      1.21221187	     -0.00000000	     -0.00000000	     -0.16961080	     -3.19049695	     11.38748529	      0.00000000	     -5.76557850	      3.69665462	     -0.15259262
      0.73000000	      3.24252897	     -4.39175869	     -9.12369372	      0.27581391	      0.90805421	      0.26241445	    -24.24299547	     -1.90152608	     -4.25905174	    -10.88727165	      2.47914038	     -0.00000000	     -0.00000000	     -0.19001874	     -0.96961104	      5.42307950	     -0.00000000	     22.65889777	    -12.66956513	    -24.73399211	    -10.31341060	      1.15839701	     -0.00000000	     -0.00000000	     -0.18000297	     -3.78237508	     10.69050860	     -0.00000000	     -5.86178829	      3.10683380	      0.33233731
      0.73500000	      3.40006018	     -4.08162573	     -9.42227662	      0.28358835	      0.90824980	      0.26230929	    -24.20036308	     -2.39457676	     -4.05726477	    -11.88850886	      2.22326466	     -0.00000000	     -0.00000000	     -0.20749362	     -1.89548771	      5.27174838	     -0.00000000	     22.41758404	    -12.52650986	    -25.05599643	    -11.17925733	      1.14833161	      0.00000000	      0.00000000	     -0.19511485	     -4.24064112	     10.29048175	      0.00000000	     -5.93845821	      2.83564919	      1.14715693
      0.74000000	      3.58520216	     -3.72066362	     -9.69703769	      0.29128355	      0.90863926	      0.26218413	    -24.11652357	     -2.92645080	     -3.86534203	    -12.97492958	      1.97268442	      0.00000000	      0.00000000	     -0.22645524	     -2.88045543	      5.04550616	     -0.00000000	     22.04475572	    -12.21335246	    -25.07084085	    -11.74570860	      1.12159658	     -0.00000000	     -0.00000000	     -0.20500129	     -4.94823065	      9.36808124	     -0.00000000	     -6.03000109	      2.20305103	      1.47493771
      0.74500000	      3.73174962	     -3.41683587	     -9.88464505	      0.29911803	      0.90893579	      0.26201684	    -23.97856478	     -3.31964469	     -3.78253571	    -14.08119065	      1.64077213	      0.00000000	      0.00000000	     -0.24576314	     -4.02211688	      4.79362220	     -0.00000000	     21.86393936	    -12.08981608	    -25.29549345	    -12.71521984	      1.16348076	      0.00000000	      0.00000000	     -0.22192245	     -5.38823027	      9.08637133	     -0.00000000	     -6.05983239	      1.88793607	      2.17169241
      0.75000000	      3.90775404	     -3.06086852	    -10.02495025	      0.30682563	      0.90941980	      0.26168899	    -23.78394339	     -3.79640729	     -3.75464289	    -15.31845781	      1.39476189	      0.00000000	      0.00000000	     -0.26735753	     -5.22558685	      4.51415324	     -0.00000000	     21.56162759	    -11.73218776	    -25.12627159	    -13.33210686	      1.12996523	     -0.00000000	     -0.00000000	     -0.23268916	     -6.03213702	      8.18533775	      0.00000000	     -6.13155813	      1.33713671	      2.50363252
      0.75500000	      4.03005992	     -2.80056456	    -10.12692352	      0.31458294	      0.90982146	      0.26139527	    -23.50481473	     -4.10667045	     -3.75714518	    -16.58842850	      1.07425042	     -0.00000000	     -0.00000000	     -0.28952270	     -6.54954606	      4.17123153	     -0.00000000	     21.42779440	    -11.63084821	    -25.15838541	    -14.31595903	      1.21351016	      0.00000000	      0.00000000	     -0.24986062	     -6.42799555	      7.85088973	     -0.00000000	     -6.14586801	      1.06612954	      3.09026395
      0.76000000	      4.18432889	     -2.42849304	    -10.29168805	      0.32231917	      0.91038703	      0.26129618	    -23.13429068	     -4.56816237	     -3.80110237	    -18.02162642	      0.75864544	      0.00000000	      0.00000000	     -0.31453672	     -7.95354183	      3.88797864	     -0.00000000	     21.14268119	    -11.34967248	    -25.11023211	    -15.01424333	      1.27333452	      0.00000000	      0.00000000	     -0.26204798	     -6.94157924	      7.18834647	     -0.00000000	     -6.15925297	      0.50825049	      3.54855371
      0.76500000	      4.29489047	     -2.09884337	    -10.36316399	      0.33004184	      0.91085708	      0.26090993	    -22.66611299	     -4.98287942	     -3.93720895	    -19.55644619	      0.50319166	     -0.00000000	     -0.00000000	     -0.34132438	     -9.32178499	      3.55413376	      0.00000000	     20.97474551	    -11.09410906	    -25.03075525	    -15.82735827	      1.32102279	      0.00000000	      0.00000000	     -0.27623951	     -7.29899939	      6.78471053	      0.00000000	     -6.14388790	      0.14661830	      4.06538164
      0.77000000	      4.39914869	     -1.75307679	    -10.40499886	      0.33781041	      0.91135288	      0.26059521	    -22.13408715	     -5.37676590	     -4.15611491	    -21.15929738	      0.19418710	     -0.00000000	     -0.00000000	     -0.36929941	    -10.84493902	      3.11611171	     -0.00000000	     20.80108926	    -10.82191776	    -24.92664353	    -16.62799524	      1.39171113	     -0.00000000	     -0.00000000	     -0.29021326	     -7.54742846	      6.39992488	     -0.00000000	     -6.10143675	     -0.22957160	      4.60521649
      0.77500000	      4.47064592	     -1.46394864	    -10.43031524	      0.34551415	      0.91179836	      0.26027936	    -21.48095780	     -5.70766303	     -4.43135575	    -22.89190206	     -0.13127062	      0.00000000	      0.00000000	     -0.39953906	    -12.35288873	      2.69432456	     -0.00000000	     20.65434911	    -10.62614368	    -24.74539932	    -17.43792350	      1.52488741	     -0.00000000	     -0.00000000	     -0.30434918	     -7.70755060	      5.95623696	     -0.00000000	     -6.02099562	     -0.62066853	      4.98674491
      0.78000000	      4.50570948	     -1.12473307	    -10.39650478	      0.35324604	      0.91217560	      0.25977165	    -20.71974556	     -6.11627490	     -4.81711152	    -24.73021187	     -0.39746482	     -0.00000000	     -0.00000000	     -0.43162362	    -13.89949092	      2.26641887	     -0.00000000	     20.55583819	    -10.30888168	    -24.52647850	    -18.20449751	      1.58928077	     -0.00000000	     -0.00000000	     -0.31772842	     -7.75465686	      5.60731088	      0.00000000	     -5.89441771	     -0.97584197	      5.40164248
      0.78500000	      4.53857809	     -0.62476135	    -10.25499513	      0.36101662	      0.91244322	      0.25896121	    -19.85379344	     -6.74307548	     -5.53018282	    -26.74178040	     -0.65740295	      0.00000000	      0.00000000	     -0.46673212	    -15.37541733	      2.03535279	      0.00000000	     20.46445881	     -9.68372550	    -24.20737816	    -18.82901603	      1.57926179	     -0.00000000	     -0.00000000	     -0.32862832	     -7.76762177	      5.08240406	     -0.00000000	     -5.70924074	     -1.59210601	      5.54720917
      0.79000000	      4.49901182	     -0.52790682	    -10.26020727	      0.36863904	      0.91264910	      0.25869552	    -18.90731752	     -6.83300585	     -5.85215333	    -28.72509864	     -1.09141434	     -0.00000000	     -0.00000000	     -0.50134755	    -16.86462443	      1.50616279	      0.00000000	     20.49864248	     -9.85372050	    -24.25720386	    -19.97183857	      1.83580208	     -0.00000000	     -0.00000000	     -0.34857434	     -7.37053357	      5.19327734	     -0.00000000	     -5.52703448	     -1.72633817	      5.87110164
      0.79500000	      4.50635366	      0.62939383	    -10.02388541	      0.37658729	      0.91264823	      0.25737525	    -17.75708247	     -8.42632265	     -7.11593130	    -31.13007619	     -1.10292789	     -0.00000000	     -0.00000000	     -0.54332233	    -18.16748767	      1.44910304	     -0.00000000	     20.35234856	     -8.12709244	    -23.90703139	    -19.98287835	      1.41844190	     -0.00000000	     -0.00000000	     -0.34876702	     -7.52114404	      4.35121173	      0.00000000	     -5.15629210	     -2.94457042	      6.11919163
      0.80000000	      4.45874433	      1.28122041	     -9.97267019	      0.38429923	      0.91269698	      0.25673566	    -16.58202678	     -9.32546196	     -7.82670395	    -33.41108991	     -1.35729571	      0.00000000	      0.00000000	     -0.58313353	    -19.49860791	      1.01805894	      0.00000000	     20.26296790	     -7.33042067	    -23.82234432	    -20.45498443	      1.35877569	     -0.00000000	     -0.00000000	     -0.35700683	     -7.30736659	      3.96271880	      0.00000000	     -4.84004043	     -3.63487927	      6.50570794
      0.80500000	      4.40227571	      1.98890259	     -9.84965965	      0.39200338	      0.91269311	      0.25578817	    -15.37791211	    -10.34508098	     -8.60232345	    -35.70520668	     -1.55965343	      0.00000000	      0.00000000	     -0.62317342	    -20.88257287	      0.56427283	     -0.00000000	     20.18216575	     -6.37383517	    -23.71898069	    -20.84164520	      1.20568991	      0.00000000	      0.00000000	     -0.36375533	     -7.00520376	      3.63268644	      0.00000000	     -4.51047227	     -4.35081608	      6.79061785
      0.81000000	      4.30793719	      2.77824950	     -9.77755531	      0.39965655	      0.91259723	      0.25499457	    -14.06337535	    -11.47393615	     -9.33258229	    -38.07116736	     -1.78531102	     -0.00000000	     -0.00000000	     -0.66446722	    -22.04188089	      0.06117718	      0.00000000	     20.10079990	     -5.32117576	    -23.67036937	    -21.12103147	      1.02536445	     -0.00000000	     -0.00000000	     -0.36863154	     -6.66980230	      3.24696126	      0.00000000	     -4.09763610	     -5.19468499	      7.10176353
